<svg xmlns="http://www.w3.org/2000/svg" height="40" viewBox="0 96 960 960" width="40"><path d="M490.666 714.001q41.334 0 70.334-28.614 29-28.613 29-70.053V374h117.333v-66.666H550v231.333q-11.667-9.333-26.88-14.333-15.212-5-32.454-5-40.04 0-67.686 27.911-27.647 27.911-27.647 68.333 0 40.423 27.647 69.423 27.646 29 67.686 29ZM279.999 842.667q-27 0-46.833-19.833t-19.833-46.833V242.666q0-27 19.833-46.833T279.999 176h533.335q27 0 46.833 19.833T880 242.666v533.335q0 27-19.833 46.833t-46.833 19.833H279.999Zm0-66.666h533.335V242.666H279.999v533.335ZM146.666 976q-27 0-46.833-19.833T80 909.334V309.333h66.666v600.001h600.001V976H146.666Zm133.333-733.334v533.335-533.335Z"/></svg>